<svg id="Layer_1" data-name="Layer 1" xmlns="http://www.w3.org/2000/svg" viewBox="0 0 3577.47 859.75"><defs><style>.cls-1{fill:#f1e2c1;}</style></defs><title>BhojnaiParivar</title><path class="cls-1" d="M710.53,2615.42Q710.53,2503,771,2424t147.66-79q68.39,0,115.95,38.84t47.56,96v86.31h99.1V2349.38h89.19v542.08h-89.19V2647.53h-99.1q0,34.71-24.77,60.71t-59.46,26q-37.68,0-63.42-24.94t-25.77-61.79q0-33.6,24.77-57.47T993,2566.21v-80.67q-5-23.62-22.29-38.71t-42.12-15.06q-53.52,0-91.17,55.15t-37.66,134q0,67,31.71,122.17t87.21,83.23l-44.59,70.26q-74.32-36.77-118.92-113.55T710.53,2615.42Z" transform="translate(-710.53 -2069.66)"/><path class="cls-1" d="M1091.06,2151v-81.31q73.35,0,137.75,23.85t110,73.73l158.56,173.46-89.45.29-118.81-108.53Q1198,2151,1091.06,2151Zm317.12,198.41h89.19v542.08h-89.19V2349.38Z" transform="translate(-710.53 -2069.66)"/><path class="cls-1" d="M1590.52,2468.64q0-56.37,38.15-95.95t93.65-39.58q57.45,0,121.89,46.08t119.91,127.39q121.89-122.51,223-157.2h81.26v542.08h-89.19V2447q-131.8,71.57-174.41,135.52,31.7,67.25,31.71,135.53,0,58.55-24.77,99.74t-60.45,41.2q-37.68,0-63.43-37.4t-25.76-92.7q0-92.15,53.51-157.21-49.77-71.55-102-111.67t-96-40.11q-15.93,0-26.87,14.09t-11,34.7q0,16.26,9,27.1t22,10.84q21.94,0,48.92-37.94l58.88,59.63q-40.64,65-107,65.05-50.55,0-85.72-36.32T1590.52,2468.64Z" transform="translate(-710.53 -2069.66)"/><path class="cls-1" d="M2852,2869.78q-77.29,59.61-218,59.63-98.1,0-168-67.76t-69.87-165.34V2349.38h89.19v336.09q0,64,46.58,110.59t112,46.62q104.06,0,168.47-48.79ZM2653.84,2718q-59.46,0-84.23-27.11l19.82-81.31q30.71,21.71,59.46,21.68,41.61,0,70.36-31.27t28.74-76.57q0-41-19.82-69t-49.55-28q-51.54,0-74.33,20.6l-29.73-69.38q41.63-32.54,99.1-32.53,68.39,0,116,51.89t47.56,126.47q0,80-53.51,137.3T2653.84,2718Zm262.61-368.62h89.19v542.08h-89.19V2349.38Z" transform="translate(-710.53 -2069.66)"/><path class="cls-1" d="M3146.36,2284.33q0-53.11-16.85-80.77T3077,2175.91q-30.7,0-52.52,31.44t-21.81,77V2344h-89.18v-59.63q0-80.22,47.56-137.69T3077,2089.18q71.36,0,115,53.12t43.61,142v607.13h-89.19V2284.33Z" transform="translate(-710.53 -2069.66)"/><path class="cls-1" d="M3428.56,2708.58a22,22,0,0,0-4-13.13q-4-5.62-10.06-5.63h-20.13V2657h24.16q20.11,0,34.21,13.6a44.52,44.52,0,0,1,14.09,33.3v68q0,12.67,10.47,21.58t25.76,8.91q14.08,0,25.36-9.85a47,47,0,0,0,14.9-25.32V2657h36.23v234.48h-36.23v-72.69q-5.23,8.44-16.1,13.6a55.64,55.64,0,0,1-24.16,5.16q-31,0-52.73-21.11t-21.74-51.58Z" transform="translate(-710.53 -2069.66)"/><path class="cls-1" d="M3636.68,2624.17q0-38.93,20.73-61.67t53.74-22.74q33,0,53.74,23t20.73,61.43v30.48h-36.23v-30.48q-2-22.52-11.67-34.7t-26.57-12.2q-16.91,0-27.78,12.66-10.47,11.27-10.46,34.24v267.3h-36.23v-267.3Z" transform="translate(-710.53 -2069.66)"/><path class="cls-1" d="M3715.58,2769.54h32.2q20.13,0,34.22-12.12t14.09-29.84q0-15.37-11.88-26.34a40.43,40.43,0,0,0-28.38-10.95q-22.54,0-34.22,8.91l-12.07-30q16.9-14.07,46.29-14.07,31.8,0,54.15,21t22.34,51.43q0,28.52-16.91,50.25t-43.48,26.88l6,39.86a10.37,10.37,0,0,0,4,8.44,15.39,15.39,0,0,0,10.06,3.28h46.3v35.18H3788q-17.33,0-30.2-13.13t-16.1-33.77l-6-37.52h-20.12Z" transform="translate(-710.53 -2069.66)"/><path class="cls-1" d="M3860.09,2741.4q0-34.7,18.92-59.55T3924.5,2657h28.18l4,37.52h-24.15q-15.3,0-25.76,13.6t-10.47,33.29q0,21.58,12.08,36.58t30.19,15q30.59,0,54.34-23.45V2657h36.23v234.48h-36.23v-79.72q-19.32,18.75-52.33,18.75-33.42,0-57-26T3860.09,2741.4Z" transform="translate(-710.53 -2069.66)"/><path class="cls-1" d="M4085.92,2657h36.23v234.48h-36.23V2657Z" transform="translate(-710.53 -2069.66)"/><path class="cls-1" d="M4165.22,2769.54h32.2q20.13,0,34.22-12.12t14.09-29.84q0-15.37-11.87-26.34a40.43,40.43,0,0,0-28.38-10.95q-22.56,0-34.22,8.91l-12.08-30q16.9-14.07,46.3-14.07,31.79,0,54.14,21t22.34,51.43q0,28.52-16.91,50.25t-43.47,26.88l6,39.86a10.39,10.39,0,0,0,4,8.44,15.4,15.4,0,0,0,10.07,3.28H4288v35.18h-50.32q-17.31,0-30.19-13.13t-16.1-33.77l-6-37.52h-20.13Z" transform="translate(-710.53 -2069.66)"/></svg>