<svg id="Layer_1" data-name="Layer 1" xmlns="http://www.w3.org/2000/svg" viewBox="0 0 2787.23 634.91"><defs><style>.cls-1{fill:#f1e2c1;}.cls-2{fill:#88181b;}</style></defs><title>bhojani-parivar</title><path class="cls-1" d="M1113.29,2490.62q0-83.05,44.64-141.36T1267,2291q50.49,0,85.62,28.68t35.13,70.91v63.74h73.18V2294.15h65.87v400.32h-65.87V2514.33h-73.18q0,25.64-18.3,44.83t-43.91,19.22q-27.81,0-46.83-18.42t-19-45.63q0-24.81,18.29-42.44t43.91-17.61v-59.57a50.51,50.51,0,0,0-16.46-28.59q-12.81-11.11-31.11-11.12-39.51,0-67.32,40.72t-27.81,99q0,49.5,23.41,90.22t64.41,61.46l-32.94,51.9q-54.88-27.17-87.82-83.86T1113.29,2490.62Z" transform="translate(-1113.29 -2087.58)"/><path class="cls-1" d="M1394.31,2147.63v-60.05q54.17,0,101.72,17.62a204.73,204.73,0,0,1,81.24,54.44l117.09,128.11-66.06.21-87.74-80.16Q1473.29,2147.65,1394.31,2147.63Zm234.19,146.52h65.86v400.32H1628.5V2294.15Z" transform="translate(-1113.29 -2087.58)"/><path class="cls-1" d="M1763.15,2382.22q0-41.62,28.17-70.86t69.16-29.22q42.43,0,90,34t88.55,94.07q90-90.47,164.66-116.09h60v400.32h-65.86V2366.21q-97.35,52.85-128.81,100.08,23.41,49.65,23.42,100.08,0,43.23-18.29,73.66t-44.65,30.42q-27.81,0-46.83-27.62t-19-68.45q0-68.05,39.52-116.1-36.76-52.84-75.33-82.46t-70.92-29.63q-11.78,0-19.84,10.41t-8.09,25.62q0,12,6.63,20t16.22,8q16.22,0,36.12-28l43.49,44q-30,48-79,48-37.32,0-63.3-26.83T1763.15,2382.22Z" transform="translate(-1113.29 -2087.58)"/><path class="cls-1" d="M2694.76,2678.46q-57.08,44-161,44-72.45,0-124-50t-51.6-122.1V2294.15H2424v248.2q0,47.25,34.39,81.67t82.7,34.42q76.85,0,124.41-36ZM2548.4,2566.37q-43.92,0-62.21-20l14.64-60q22.68,16,43.91,16,30.74,0,52-23.1t21.22-56.54q0-30.27-14.63-51t-36.6-20.7q-38.05,0-54.88,15.21l-22-51.24q30.74-24,73.19-24,50.49,0,85.62,38.32t35.13,93.4q0,59.09-39.52,101.39T2548.4,2566.37Zm193.93-272.22h65.87v400.32h-65.87V2294.15Z" transform="translate(-1113.29 -2087.58)"/><path class="cls-1" d="M2912.12,2246.11q0-39.22-12.45-59.65t-38.78-20.41q-22.68,0-38.79,23.21t-16.1,56.85v44h-65.86v-44q0-59.24,35.12-101.68t85.63-42.44q52.7,0,84.89,39.24t32.2,104.88v448.36h-65.86V2246.11Z" transform="translate(-1113.29 -2087.58)"/><rect class="cls-2" x="1865.17" y="296.13" width="922.06" height="311.14"/><path class="cls-1" d="M3120.52,2525.83a16.27,16.27,0,0,0-3-9.7,8.86,8.86,0,0,0-7.43-4.16h-14.86v-24.24h17.83a35,35,0,0,1,25.27,10.05,32.85,32.85,0,0,1,10.41,24.59v50.21q0,9.35,7.73,15.93t19,6.58a27.72,27.72,0,0,0,18.73-7.27,34.61,34.61,0,0,0,11-18.7v-81.39H3232v173.16h-26.76v-53.68q-3.87,6.24-11.89,10a40.94,40.94,0,0,1-17.84,3.81q-22.89,0-38.94-15.58a51.07,51.07,0,0,1-16.05-38.1Z" transform="translate(-1113.29 -2087.58)"/><path class="cls-1" d="M3274.21,2463.49q0-28.74,15.31-45.54t39.69-16.79q24.36,0,39.68,17t15.31,45.36V2486h-26.75v-22.51q-1.5-16.62-8.62-25.62t-19.62-9a25.84,25.84,0,0,0-20.52,9.35q-7.72,8.31-7.73,25.28v197.4h-26.75v-197.4Z" transform="translate(-1113.29 -2087.58)"/><path class="cls-1" d="M3332.47,2570.85h23.79q14.85,0,25.26-8.95t10.41-22q0-11.36-8.77-19.45a29.86,29.86,0,0,0-21-8.09q-16.65,0-25.27,6.58l-8.92-22.16q12.49-10.39,34.19-10.39,23.49,0,40,15.53t16.5,38A58.77,58.77,0,0,1,3406.2,2577a52,52,0,0,1-32.11,19.85l4.46,29.44a7.67,7.67,0,0,0,3,6.23,11.36,11.36,0,0,0,7.44,2.42h34.18v26H3386q-12.78,0-22.29-9.7t-11.89-24.93l-4.46-27.71h-14.87Z" transform="translate(-1113.29 -2087.58)"/><path class="cls-1" d="M3439.19,2550.07q0-25.62,14-44t33.59-18.36h20.81l3,27.71h-17.83q-11.31,0-19,10t-7.73,24.59q0,15.93,8.92,27t22.29,11.08q22.59,0,40.14-17.31v-83.12h26.75v173.16H3537.3V2602q-14.28,13.84-38.65,13.85-24.68,0-42.06-19.22T3439.19,2550.07Z" transform="translate(-1113.29 -2087.58)"/><path class="cls-1" d="M3606,2487.73h26.75v173.16H3606V2487.73Z" transform="translate(-1113.29 -2087.58)"/><path class="cls-1" d="M3664.53,2570.85h23.78q14.86,0,25.27-8.95t10.41-22q0-11.36-8.77-19.45a29.88,29.88,0,0,0-21-8.09q-16.65,0-25.27,6.58l-8.92-22.16q12.48-10.39,34.19-10.39,23.47,0,40,15.53t16.5,38a58.71,58.71,0,0,1-12.49,37.11,52,52,0,0,1-32.1,19.85l4.46,29.44a7.67,7.67,0,0,0,3,6.23,11.35,11.35,0,0,0,7.43,2.42h34.19v26H3718q-12.78,0-22.3-9.7t-11.89-24.93l-4.46-27.71h-14.86Z" transform="translate(-1113.29 -2087.58)"/></svg>